<svg xmlns="http://www.w3.org/2000/svg" width="357.081" height="49.697" viewBox="0 0 357.081 49.697"><g transform="translate(-1404 -385.545)"><g transform="translate(1475.991 390.34)"><g transform="translate(0 0)"><path d="M1610.449,433.631l6.993-8.335a22.442,22.442,0,0,0,13.706,4.587c2.35,0,3.357-.615,3.357-1.678v-.112c0-1.119-1.231-1.734-5.426-2.573-8.783-1.79-16.5-4.308-16.5-12.588v-.112c0-7.44,5.818-13.2,16.615-13.2,7.552,0,13.147,1.79,17.678,5.371l-6.378,8.839a20.537,20.537,0,0,0-11.748-3.86c-1.958,0-2.853.671-2.853,1.622v.112c0,1.063,1.063,1.734,5.2,2.518,10.014,1.846,16.727,4.755,16.727,12.643v.112c0,8.224-6.769,13.258-17.286,13.258C1622.589,440.233,1615.428,438,1610.449,433.631Z" transform="translate(-1610.449 -399.506)"/><path d="M1726.279,401.7h13.091v13.818h11.972V401.7h13.091v39.161h-13.091V426.822H1739.37v14.042h-13.091Z" transform="translate(-1685.888 -400.864)"/><path d="M1845.959,419.828v-.112c0-11.357,9.343-20.419,21.426-20.419s21.315,8.951,21.315,20.308v.112c0,11.357-9.343,20.419-21.427,20.419S1845.959,431.185,1845.959,419.828Zm29.538,0v-.112c0-4.643-3.189-8.839-8.224-8.839-4.979,0-8.112,4.14-8.112,8.728v.112c0,4.643,3.189,8.839,8.224,8.839C1872.365,428.555,1875.5,424.415,1875.5,419.828Z" transform="translate(-1763.834 -399.297)"/><path d="M1976.229,419.828v-.112c0-11.357,9.343-20.419,21.426-20.419s21.315,8.951,21.315,20.308v.112c0,11.357-9.343,20.419-21.427,20.419S1976.229,431.185,1976.229,419.828Zm29.538,0v-.112c0-4.643-3.189-8.839-8.224-8.839-4.979,0-8.112,4.14-8.112,8.728v.112c0,4.643,3.189,8.839,8.224,8.839C2002.634,428.555,2005.767,424.415,2005.767,419.828Z" transform="translate(-1848.677 -399.297)"/><path d="M2111.446,412.78h-11.524V401.7h36.139V412.78h-11.525v28.084h-13.091Z" transform="translate(-1929.237 -400.864)"/><path d="M2212.063,401.7H2231.2c6.938,0,11.357,1.734,14.1,4.476a12.3,12.3,0,0,1,3.58,9.287v.112c0,5.706-2.965,9.678-7.72,11.972l9.119,13.315h-14.937l-7.384-11.189h-2.8v11.189h-13.091Zm18.741,18.629c3.132,0,5.035-1.4,5.035-3.8v-.112c0-2.517-1.958-3.748-4.979-3.748h-5.706v7.664Z" transform="translate(-2002.273 -400.864)"/><path d="M2323.241,431.689l17.734-19.245h-17.063V401.7h35.86v9.175l-17.734,19.244h17.734v10.741h-36.531Z" transform="translate(-2074.682 -400.864)"/></g></g><g transform="translate(1404 385.545)"><path d="M1443.622,385.545H1404v15.4a13.817,13.817,0,0,0,13.817,13.817h.832a11.147,11.147,0,0,1,19.47-10.66H1453.7V385.545Z" transform="translate(-1404 -385.545)"/><path d="M1439.879,444.284h-.717a11.149,11.149,0,0,1-19.52,10.551H1404V473.5h49.7V458.1A13.818,13.818,0,0,0,1439.879,444.284Z" transform="translate(-1404 -423.801)"/></g></g></svg>